<mxfile host="app.diagrams.net" modified="2022-03-03T09:28:32.115Z" agent="5.0 (Windows NT 10.0; Win64; x64) AppleWebKit/537.36 (KHTML, like Gecko) Chrome/98.0.4758.82 Safari/537.36" etag="K-ZcmDWvw4MV-l9IoaGe" version="16.6.1" type="github">
  <diagram id="rW2sfNHs_H75Ewt_YXq0" name="Page-1">
    <mxGraphModel dx="1422" dy="762" grid="1" gridSize="10" guides="1" tooltips="1" connect="1" arrows="1" fold="1" page="1" pageScale="1" pageWidth="827" pageHeight="1169" math="0" shadow="0">
      <root>
        <mxCell id="0" />
        <mxCell id="1" parent="0" />
        <mxCell id="Wy4MB-wMTk7PPI_UE0P6-3" style="edgeStyle=orthogonalEdgeStyle;rounded=0;orthogonalLoop=1;jettySize=auto;html=1;entryX=0;entryY=0.5;entryDx=0;entryDy=0;" edge="1" parent="1" source="Wy4MB-wMTk7PPI_UE0P6-1" target="Wy4MB-wMTk7PPI_UE0P6-2">
          <mxGeometry relative="1" as="geometry" />
        </mxCell>
        <mxCell id="Wy4MB-wMTk7PPI_UE0P6-5" style="edgeStyle=orthogonalEdgeStyle;rounded=0;orthogonalLoop=1;jettySize=auto;html=1;entryX=0;entryY=0.5;entryDx=0;entryDy=0;" edge="1" parent="1" source="Wy4MB-wMTk7PPI_UE0P6-1" target="Wy4MB-wMTk7PPI_UE0P6-4">
          <mxGeometry relative="1" as="geometry" />
        </mxCell>
        <mxCell id="Wy4MB-wMTk7PPI_UE0P6-9" style="edgeStyle=orthogonalEdgeStyle;rounded=0;orthogonalLoop=1;jettySize=auto;html=1;entryX=0;entryY=0.5;entryDx=0;entryDy=0;" edge="1" parent="1" source="Wy4MB-wMTk7PPI_UE0P6-1" target="Wy4MB-wMTk7PPI_UE0P6-7">
          <mxGeometry relative="1" as="geometry" />
        </mxCell>
        <mxCell id="Wy4MB-wMTk7PPI_UE0P6-10" style="edgeStyle=orthogonalEdgeStyle;rounded=0;orthogonalLoop=1;jettySize=auto;html=1;entryX=0;entryY=0.5;entryDx=0;entryDy=0;" edge="1" parent="1" source="Wy4MB-wMTk7PPI_UE0P6-1" target="Wy4MB-wMTk7PPI_UE0P6-8">
          <mxGeometry relative="1" as="geometry" />
        </mxCell>
        <mxCell id="Wy4MB-wMTk7PPI_UE0P6-1" value="http首部" style="rounded=0;whiteSpace=wrap;html=1;" vertex="1" parent="1">
          <mxGeometry x="40" y="410" width="120" height="60" as="geometry" />
        </mxCell>
        <mxCell id="Wy4MB-wMTk7PPI_UE0P6-2" value="通用首部" style="whiteSpace=wrap;html=1;" vertex="1" parent="1">
          <mxGeometry x="280" y="270" width="120" height="60" as="geometry" />
        </mxCell>
        <mxCell id="Wy4MB-wMTk7PPI_UE0P6-4" value="请求首部" style="whiteSpace=wrap;html=1;" vertex="1" parent="1">
          <mxGeometry x="280" y="360" width="120" height="60" as="geometry" />
        </mxCell>
        <mxCell id="Wy4MB-wMTk7PPI_UE0P6-7" value="响应首部" style="whiteSpace=wrap;html=1;" vertex="1" parent="1">
          <mxGeometry x="280" y="450" width="120" height="60" as="geometry" />
        </mxCell>
        <mxCell id="Wy4MB-wMTk7PPI_UE0P6-8" value="实体首部" style="whiteSpace=wrap;html=1;" vertex="1" parent="1">
          <mxGeometry x="280" y="540" width="120" height="60" as="geometry" />
        </mxCell>
      </root>
    </mxGraphModel>
  </diagram>
</mxfile>
